<svg width="48" height="48" viewBox="0 0 48 48" fill="none" xmlns="http://www.w3.org/2000/svg">
<path d="M0 6C0 2.68629 2.68629 0 6 0H42C45.3137 0 48 2.68629 48 6V42C48 45.3137 45.3137 48 42 48H6C2.68629 48 0 45.3137 0 42V6Z" fill="url(#paint0_linear_338_118)" fill-opacity="0.2"/>
<path d="M24 19C25.1046 19 26 18.1046 26 17C26 15.8954 25.1046 15 24 15C22.8954 15 22 15.8954 22 17C22 18.1046 22.8954 19 24 19ZM24 19V23M17 23H31C32.1046 23 33 23.8954 33 25V31C33 32.1046 32.1046 33 31 33H17C15.8954 33 15 32.1046 15 31V25C15 23.8954 15.8954 23 17 23Z" stroke="black" stroke-width="2" stroke-linecap="round" stroke-linejoin="round"/>
<defs>
<linearGradient id="paint0_linear_338_118" x1="8.28571" y1="3.1585e-06" x2="43.0869" y2="17.5955" gradientUnits="userSpaceOnUse">
<stop stop-color="#96E5FF"/>
<stop offset="1" stop-color="#006BB7"/>
</linearGradient>
</defs>
</svg>
