<svg width="20" height="20" viewBox="0 0 14 14" fill="none" xmlns="http://www.w3.org/2000/svg">
<path d="M13.8535 6.64648L13 5.79298L7.35348 0.146475C7.15818 -0.048825 6.84178 -0.048825 6.64648 0.146475L0.999975 5.79298L0.146475 6.64648C-0.048825 6.84178 -0.048825 7.15818 0.146475 7.35348C0.244175 7.45118 0.372075 7.49998 0.499975 7.49998C0.627875 7.49998 0.755875 7.45118 0.853475 7.35348L0.999975 7.20697V13.5C0.999975 13.7761 1.22387 14 1.49997 14H12.5C12.7761 14 13 13.7761 13 13.5V7.20697L13.1465 7.35348C13.2442 7.45118 13.3721 7.49998 13.5 7.49998C13.6279 7.49998 13.7559 7.45118 13.8535 7.35348C14.0488 7.15818 14.0488 6.84178 13.8535 6.64648ZM5.99998 13V8.99998C5.99998 8.44858 6.44858 7.99998 6.99998 7.99998C7.55138 7.99998 7.99998 8.44858 7.99998 8.99998V13H5.99998ZM12 13H8.99998V8.99998C8.99998 7.89538 8.10458 6.99998 6.99998 6.99998C5.89538 6.99998 4.99998 7.89538 4.99998 8.99998V13H1.99997V6.20697L3.20697 4.99998L6.99998 1.20697L10.793 4.99998L12 6.20697V13Z" fill="black"/>
</svg>
