<svg width="98" height="23" viewBox="0 0 98 23" fill="none" xmlns="http://www.w3.org/2000/svg">
<g clip-path="url(#clip0_790_436)">
<path d="M18.1478 15.2541C18.1478 15.4686 17.996 15.73 17.8113 15.836L13.1236 18.5401V8.10941L4.08234 2.89421L8.76996 0.191143C8.95474 0.0840722 9.2587 0.0840722 9.44385 0.191143L18.1478 5.21199V15.2541ZM11.1125 9.26792L4.92076 5.69464C4.73561 5.5883 4.43315 5.5883 4.24762 5.69464L0.0633545 8.10866L6.5935 11.8755L6.59462 19.41L10.7759 16.9963C10.9614 16.8893 11.1125 16.6271 11.1125 16.4137L11.1125 9.26792ZM0.0633545 15.6427L4.58119 18.25V13.034L0.0633545 15.6427Z" fill="#5CE500"/>
<path d="M28.1059 5.20837H23.1788V18.5388H25.365V13.3071H28.1239C31.1092 13.3071 32.7534 11.8502 32.7534 9.20363C32.7534 8.00242 32.2999 5.20837 28.1059 5.20837ZM30.5305 9.24033C30.5305 10.7437 29.7498 11.3567 27.8353 11.3567H25.365V7.17679H28.1239C29.7441 7.17679 30.5305 7.85228 30.5305 9.24033ZM39.2611 8.82656L39.4263 8.90632L39.0553 10.8766L38.8001 10.798C38.5909 10.7336 38.3784 10.701 38.1685 10.701C36.1262 10.701 35.9594 12.3261 35.9594 14.2915V18.5388H33.9348V8.74982H35.8331V9.9308C36.3496 9.1366 36.9748 8.7266 37.7971 8.62588C38.336 8.56372 38.8611 8.63711 39.2611 8.82656ZM44.2377 8.55248C42.644 8.55248 41.3682 9.1587 40.5462 10.3052C39.6835 11.5094 39.5556 12.9252 39.5556 13.6617C39.5556 16.7553 41.3925 18.7537 44.2377 18.7537C47.6944 18.7537 48.9208 15.9716 48.9208 13.5898C48.9208 12.2194 48.5141 10.9759 47.7776 10.0877C46.9433 9.08344 45.7189 8.55248 44.2377 8.55248ZM44.2377 16.947C42.6534 16.947 41.6691 15.6878 41.6691 13.6617C41.6691 11.6139 42.6534 10.3412 44.2377 10.3412C45.8096 10.3412 46.8245 11.6296 46.8245 13.6261C46.8245 15.6739 45.8328 16.947 44.2377 16.947ZM65.9345 8.82657L66.0997 8.90633L65.7276 10.8766L65.472 10.798C65.2639 10.7336 65.0514 10.701 64.8408 10.701C62.7989 10.701 62.6332 12.3261 62.6332 14.2915V18.5388H60.6085V8.74982H62.5073V9.9308C63.0234 9.1366 63.6489 8.7266 64.4712 8.62588C65.0098 8.56372 65.5342 8.63711 65.9345 8.82657ZM73.2052 15.4006L73.1677 15.5081C72.7453 16.7115 71.7352 16.9639 70.9613 16.9639C69.4295 16.9639 68.4434 15.948 68.3474 14.2979H75.2752L75.3007 14.1058C75.3314 13.8793 75.3262 13.5602 75.3228 13.327C75.3224 13.2633 75.3206 13.206 75.3206 13.1502C75.2194 10.4101 73.4316 8.56934 70.8713 8.56934C69.3759 8.56934 68.1499 9.15607 67.3257 10.2678C66.6597 11.1668 66.277 12.4107 66.277 13.6797C66.277 16.7044 68.16 18.7372 70.9613 18.7372C73.1284 18.7372 74.6208 17.6368 75.165 15.6395L75.2303 15.4006L73.2052 15.4006ZM68.4145 12.5421C68.5847 11.1859 69.5145 10.324 70.8353 10.324C71.8447 10.324 73.0395 10.9103 73.2067 12.5421H68.4145ZM56.9216 9.57133C56.2684 8.89472 55.3955 8.55248 54.3168 8.55248C51.3465 8.55248 49.9942 11.1638 49.9942 13.5898C49.9942 16.0794 51.3307 18.5919 54.3168 18.5919C55.313 18.5919 56.2031 18.2257 56.8444 17.5671C56.8373 17.9981 56.8261 18.4096 56.8141 18.5844C56.7039 20.1994 55.9273 20.9513 54.3704 20.9513C53.5233 20.9513 52.5515 20.651 52.3637 19.8077L52.3225 19.6216L50.3274 19.622L50.3596 19.889C50.5684 21.6148 52.0852 22.6872 54.3168 22.6872C56.2751 22.6872 57.6686 21.9499 58.3459 20.5566C58.6727 19.8852 58.838 18.9065 58.838 17.6491V8.74982H56.9216V9.57133ZM54.4435 16.7857C53.7355 16.7857 52.0908 16.4651 52.0908 13.5003C52.0908 11.5517 53.0129 10.3412 54.4967 10.3412C55.6432 10.3412 56.868 11.1709 56.868 13.5003C56.868 15.5567 55.9614 16.7857 54.4435 16.7857ZM84.6737 15.5919C84.6737 17.1485 83.3803 18.7193 80.4906 18.7193C77.9352 18.7193 76.4142 17.6135 76.21 15.6069L76.1882 15.4006H78.1807L78.211 15.5504C78.4554 16.7568 79.6057 17.0099 80.5284 17.0099C81.5389 17.0099 82.6187 16.6842 82.6187 15.772C82.6187 15.3096 82.3173 14.9816 81.7241 14.7966C81.3717 14.6922 80.9392 14.5705 80.4816 14.4428C79.6934 14.2226 78.8778 13.9931 78.376 13.8205C77.1331 13.3756 76.4199 12.5095 76.4199 11.4443C76.4199 9.47061 78.3433 8.58694 80.2485 8.58694C82.7967 8.58694 84.1153 9.54587 84.2809 11.5177L84.2978 11.721L82.3342 11.7195L82.3069 11.5641C82.1093 10.4288 80.9797 10.2592 80.323 10.2592C79.7567 10.2592 78.4389 10.3603 78.4389 11.2986C78.4389 11.7251 78.8036 12.0385 79.5543 12.256C79.7781 12.319 80.1117 12.4043 80.4966 12.5039C81.296 12.7106 82.2919 12.9686 82.793 13.1416C84.0414 13.5801 84.6737 14.4042 84.6737 15.5919ZM94.0246 15.5919C94.0246 17.1485 92.7312 18.7193 89.8426 18.7193C87.2864 18.7193 85.7655 17.6135 85.5612 15.6069L85.5399 15.4006H87.5327L87.5623 15.5504C87.8063 16.7568 88.9573 17.0099 89.8801 17.0099C90.8905 17.0099 91.9696 16.6842 91.9696 15.772C91.9696 15.3096 91.6682 14.9816 91.0757 14.7966C90.7226 14.6922 90.2901 14.5705 89.8321 14.4428C89.045 14.2226 88.2295 13.9931 87.728 13.8205C86.4848 13.3756 85.7719 12.5095 85.7719 11.4443C85.7719 9.47061 87.6946 8.58694 89.6001 8.58694C92.1484 8.58694 93.4665 9.54587 93.6318 11.5177L93.6491 11.721L91.6859 11.7195L91.6585 11.5641C91.4606 10.4288 90.3317 10.2592 89.6743 10.2592C89.1087 10.2592 87.7906 10.3603 87.7906 11.2986C87.7906 11.7251 88.1556 12.0385 88.9056 12.256C89.1297 12.319 89.4622 12.4043 89.8486 12.5039C90.6477 12.7106 91.6431 12.9686 92.145 13.1416C93.3916 13.5801 94.0246 14.4042 94.0246 15.5919Z" fill="#4B4E52"/>
<path d="M95.6269 9.79975C94.8719 9.79975 94.2466 9.21306 94.2466 8.40555C94.2466 7.59792 94.8719 7.01135 95.6269 7.01135C96.3819 7.01135 97.0073 7.59793 97.0073 8.40555C97.0073 9.21306 96.3819 9.79975 95.6269 9.79975ZM95.6269 7.24756C95.0016 7.24756 94.4983 7.72746 94.4983 8.40555C94.4983 9.08364 95.0016 9.56354 95.6269 9.56354C96.2523 9.56354 96.7555 9.08364 96.7555 8.40555C96.7555 7.72746 96.2523 7.24756 95.6269 7.24756ZM95.4668 8.66461V9.12934H95.055V7.66659H95.7414C96.0692 7.66659 96.2828 7.85699 96.2828 8.17703C96.2828 8.40555 96.1759 8.55793 96.0006 8.6189L96.336 9.12934H95.8786L95.5964 8.66461L95.4668 8.66461ZM95.6955 8.00937H95.4668V8.33699H95.6955C95.8176 8.33699 95.8862 8.27602 95.8862 8.17703C95.8862 8.07793 95.8176 8.00937 95.6955 8.00937Z" fill="#4B4E52"/>
</g>
<defs>
<clipPath id="clip0_790_436">
<rect width="97.0732" height="22.8628" fill="white"/>
</clipPath>
</defs>
</svg>
