<svg width="48" height="48" viewBox="0 0 48 48" fill="none" xmlns="http://www.w3.org/2000/svg">
<path d="M0 6C0 2.68629 2.68629 0 6 0H42C45.3137 0 48 2.68629 48 6V42C48 45.3137 45.3137 48 42 48H6C2.68629 48 0 45.3137 0 42V6Z" fill="url(#paint0_linear_338_110)" fill-opacity="0.2"/>
<path d="M21 21L19 23L21 25M25 25L27 23L25 21M33 33L28.7 28.7M31 23C31 27.4183 27.4183 31 23 31C18.5817 31 15 27.4183 15 23C15 18.5817 18.5817 15 23 15C27.4183 15 31 18.5817 31 23Z" stroke="black" stroke-width="2" stroke-linecap="round" stroke-linejoin="round"/>
<defs>
<linearGradient id="paint0_linear_338_110" x1="8.28571" y1="3.1585e-06" x2="43.0869" y2="17.5955" gradientUnits="userSpaceOnUse">
<stop stop-color="#FF0080"/>
<stop offset="1" stop-color="#804BFA"/>
</linearGradient>
</defs>
</svg>
