<svg width="21" height="22" viewBox="0 0 21 22" fill="none" xmlns="http://www.w3.org/2000/svg">
<path d="M15.0025 7.01483V4.01483C15.0025 2.91483 15.9025 2.01483 17.0025 2.01483M11.0025 12.0148H15.0025M11.0025 17.0148H17.0025C17.533 17.0148 18.0417 17.2255 18.4167 17.6006C18.7918 17.9757 19.0025 18.4844 19.0025 19.0148V20.0148M11.0025 7.01483H19.0025M11.0025 3.51483C11.0062 2.88921 10.7752 2.28493 10.3551 1.82132C9.93504 1.35771 9.35639 1.06846 8.73343 1.01069C8.11047 0.952914 7.48849 1.13081 6.9903 1.50926C6.49212 1.88771 6.15393 2.43919 6.04252 3.05483C5.71288 3.11659 5.39903 3.24404 5.11966 3.42961C4.84029 3.61517 4.60111 3.85505 4.41637 4.13497C4.23163 4.41488 4.1051 4.7291 4.04431 5.05893C3.98352 5.38876 3.98971 5.72744 4.06252 6.05483C3.61118 6.13495 3.19056 6.33762 2.84665 6.64069C2.50273 6.94375 2.24876 7.33554 2.1125 7.77322C1.97625 8.21089 1.96295 8.67761 2.07406 9.12233C2.18517 9.56706 2.41642 9.97267 2.74252 10.2948C2.19406 10.548 1.73481 10.9609 1.42489 11.4795C1.11497 11.998 0.968814 12.598 1.00556 13.201C1.0423 13.804 1.26022 14.3818 1.6308 14.8589C2.00139 15.336 2.50737 15.6901 3.08252 15.8748C2.97271 16.2897 2.97153 16.7258 3.07911 17.1413C3.18669 17.5567 3.39939 17.9374 3.69675 18.2469C3.99411 18.5563 4.36612 18.7839 4.77696 18.9079C5.1878 19.0319 5.62364 19.0481 6.04252 18.9548C6.14633 19.5267 6.44616 20.0445 6.89043 20.4193C7.33471 20.794 7.89568 21.0023 8.47687 21.0082C9.05806 21.0141 9.62315 20.8173 10.075 20.4517C10.5268 20.0861 10.8371 19.5745 10.9525 19.0048L11.0025 19.0148V3.51483ZM19.5025 7.01483C19.5025 7.14744 19.4498 7.27461 19.3561 7.36838C19.2623 7.46215 19.1351 7.51483 19.0025 7.51483C18.8699 7.51483 18.7427 7.46215 18.649 7.36838C18.5552 7.27461 18.5025 7.14744 18.5025 7.01483C18.5025 6.88222 18.5552 6.75504 18.649 6.66127C18.7427 6.56751 18.8699 6.51483 19.0025 6.51483C19.1351 6.51483 19.2623 6.56751 19.3561 6.66127C19.4498 6.75504 19.5025 6.88222 19.5025 7.01483ZM15.5025 12.0148C15.5025 12.1474 15.4498 12.2746 15.3561 12.3684C15.2623 12.4621 15.1351 12.5148 15.0025 12.5148C14.8699 12.5148 14.7427 12.4621 14.649 12.3684C14.5552 12.2746 14.5025 12.1474 14.5025 12.0148C14.5025 11.8822 14.5552 11.755 14.649 11.6613C14.7427 11.5675 14.8699 11.5148 15.0025 11.5148C15.1351 11.5148 15.2623 11.5675 15.3561 11.6613C15.4498 11.755 15.5025 11.8822 15.5025 12.0148ZM19.5025 20.0148C19.5025 20.1474 19.4498 20.2746 19.3561 20.3684C19.2623 20.4621 19.1351 20.5148 19.0025 20.5148C18.8699 20.5148 18.7427 20.4621 18.649 20.3684C18.5552 20.2746 18.5025 20.1474 18.5025 20.0148C18.5025 19.8822 18.5552 19.755 18.649 19.6613C18.7427 19.5675 18.8699 19.5148 19.0025 19.5148C19.1351 19.5148 19.2623 19.5675 19.3561 19.6613C19.4498 19.755 19.5025 19.8822 19.5025 20.0148ZM17.5025 2.01483C17.5025 2.14744 17.4498 2.27461 17.3561 2.36838C17.2623 2.46215 17.1351 2.51483 17.0025 2.51483C16.8699 2.51483 16.7427 2.46215 16.649 2.36838C16.5552 2.27461 16.5025 2.14744 16.5025 2.01483C16.5025 1.88222 16.5552 1.75504 16.649 1.66127C16.7427 1.56751 16.8699 1.51483 17.0025 1.51483C17.1351 1.51483 17.2623 1.56751 17.3561 1.66127C17.4498 1.75504 17.5025 1.88222 17.5025 2.01483Z" stroke="black" stroke-width="2" stroke-linecap="round" stroke-linejoin="round"/>
</svg>
