<svg width="48" height="48" viewBox="0 0 48 48" fill="none" xmlns="http://www.w3.org/2000/svg">
<path d="M0 6C0 2.68629 2.68629 0 6 0H42C45.3137 0 48 2.68629 48 6V42C48 45.3137 45.3137 48 42 48H6C2.68629 48 0 45.3137 0 42V6Z" fill="url(#paint0_linear_338_160)" fill-opacity="0.2"/>
<path d="M28 20.0001V17.0001C28 15.9001 28.9 15.0001 30 15.0001M24 25.0001H28M24 30.0001H30C30.5304 30.0001 31.0391 30.2108 31.4142 30.5858C31.7893 30.9609 32 31.4696 32 32.0001V33.0001M24 20.0001H32M24 16.5001C24.0037 15.8744 23.7727 15.2702 23.3526 14.8066C22.9325 14.3429 22.3539 14.0537 21.7309 13.9959C21.108 13.9381 20.486 14.116 19.9878 14.4945C19.4896 14.8729 19.1514 15.4244 19.04 16.0401C18.7104 16.1018 18.3965 16.2293 18.1171 16.4148C17.8378 16.6004 17.5986 16.8403 17.4139 17.1202C17.2291 17.4001 17.1026 17.7143 17.0418 18.0442C16.981 18.374 16.9872 18.7127 17.06 19.0401C16.6087 19.1202 16.188 19.3229 15.8441 19.6259C15.5002 19.929 15.2462 20.3208 15.11 20.7584C14.9737 21.1961 14.9604 21.6628 15.0715 22.1076C15.1827 22.5523 15.4139 22.9579 15.74 23.2801C15.1915 23.5333 14.7323 23.9462 14.4224 24.4647C14.1125 24.9832 13.9663 25.5833 14.003 26.1863C14.0398 26.7892 14.2577 27.3671 14.6283 27.8441C14.9989 28.3212 15.5049 28.6753 16.08 28.8601C15.9702 29.2749 15.969 29.711 16.0766 30.1265C16.1842 30.5419 16.3969 30.9227 16.6942 31.2321C16.9916 31.5415 17.3636 31.7692 17.7744 31.8932C18.1853 32.0172 18.6211 32.0333 19.04 31.9401C19.1438 32.5119 19.4436 33.0298 19.8879 33.4045C20.3322 33.7793 20.8932 33.9875 21.4743 33.9934C22.0555 33.9993 22.6206 33.8026 23.0724 33.4369C23.5243 33.0713 23.8346 32.5597 23.95 31.9901L24 32.0001V16.5001ZM32.5 20.0001C32.5 20.1327 32.4473 20.2598 32.3536 20.3536C32.2598 20.4474 32.1326 20.5001 32 20.5001C31.8674 20.5001 31.7402 20.4474 31.6465 20.3536C31.5527 20.2598 31.5 20.1327 31.5 20.0001C31.5 19.8674 31.5527 19.7403 31.6465 19.6465C31.7402 19.5527 31.8674 19.5001 32 19.5001C32.1326 19.5001 32.2598 19.5527 32.3536 19.6465C32.4473 19.7403 32.5 19.8674 32.5 20.0001ZM28.5 25.0001C28.5 25.1327 28.4473 25.2598 28.3536 25.3536C28.2598 25.4474 28.1326 25.5001 28 25.5001C27.8674 25.5001 27.7402 25.4474 27.6465 25.3536C27.5527 25.2598 27.5 25.1327 27.5 25.0001C27.5 24.8674 27.5527 24.7403 27.6465 24.6465C27.7402 24.5527 27.8674 24.5001 28 24.5001C28.1326 24.5001 28.2598 24.5527 28.3536 24.6465C28.4473 24.7403 28.5 24.8674 28.5 25.0001ZM32.5 33.0001C32.5 33.1327 32.4473 33.2598 32.3536 33.3536C32.2598 33.4474 32.1326 33.5001 32 33.5001C31.8674 33.5001 31.7402 33.4474 31.6465 33.3536C31.5527 33.2598 31.5 33.1327 31.5 33.0001C31.5 32.8674 31.5527 32.7403 31.6465 32.6465C31.7402 32.5527 31.8674 32.5001 32 32.5001C32.1326 32.5001 32.2598 32.5527 32.3536 32.6465C32.4473 32.7403 32.5 32.8674 32.5 33.0001ZM30.5 15.0001C30.5 15.1327 30.4473 15.2598 30.3536 15.3536C30.2598 15.4474 30.1326 15.5001 30 15.5001C29.8674 15.5001 29.7402 15.4474 29.6465 15.3536C29.5527 15.2598 29.5 15.1327 29.5 15.0001C29.5 14.8674 29.5527 14.7403 29.6465 14.6465C29.7402 14.5527 29.8674 14.5001 30 14.5001C30.1326 14.5001 30.2598 14.5527 30.3536 14.6465C30.4473 14.7403 30.5 14.8674 30.5 15.0001Z" stroke="black" stroke-width="2" stroke-linecap="round" stroke-linejoin="round"/>
<defs>
<linearGradient id="paint0_linear_338_160" x1="8.28571" y1="3.1585e-06" x2="43.0869" y2="17.5955" gradientUnits="userSpaceOnUse">
<stop stop-color="#FFE600"/>
<stop offset="1" stop-color="#FA4B4B"/>
</linearGradient>
</defs>
</svg>
